<?xml version="1.0"?>
<svg xmlns="http://www.w3.org/2000/svg" viewBox="0 0 50 50">
    <path d="M 25 1.9921875 C 19.488944 1.9921875 14.775929 6.3410353 11.421875 11.767578 C 8.0678207 17.194121 6 23.800923 6 29.03125 C 6 39.491904 14.519819 47.990234 25 47.990234 C 35.480181 47.990234 44 39.491904 44 29.03125 C 44 23.801396 41.932172 17.194238 38.578125 11.767578 C 35.224078 6.3409184 30.511089 1.9921875 25 1.9921875 z M 25 3.9921875 C 29.429911 3.9921875 33.71625 7.7045201 36.876953 12.818359 C 37.312093 13.522391 37.717749 14.25468 38.105469 15 L 11.894531 15 C 12.282251 14.254705 12.687908 13.522373 13.123047 12.818359 C 16.283743 7.7046532 20.570056 3.9921875 25 3.9921875 z M 10.925781 17 L 39.074219 17 C 39.915395 18.886881 40.58849 20.829039 41.082031 22.716797 L 40 21.480469 L 32.951172 29.537109 L 25 21.585938 L 17.048828 29.537109 L 10 21.480469 L 8.9179688 22.716797 C 9.4115098 20.829077 10.084605 18.886817 10.925781 17 z M 17 23 A 1 1 0 0 0 16 24 A 1 1 0 0 0 17 25 A 1 1 0 0 0 18 24 A 1 1 0 0 0 17 23 z M 33 23 A 1 1 0 0 0 32 24 A 1 1 0 0 0 33 25 A 1 1 0 0 0 34 24 A 1 1 0 0 0 33 23 z M 25 24.414062 L 33.048828 32.462891 L 40 24.517578 L 41.794922 26.570312 L 41.830078 26.539062 C 41.936929 27.406944 42 28.245798 42 29.03125 C 42 32.375814 41.019825 35.482233 39.349609 38.107422 L 39.349609 38 L 10.585938 38 C 8.9567768 35.397067 8 32.330972 8 29.03125 C 8 28.245709 8.063071 27.406975 8.1699219 26.539062 L 8.2050781 26.570312 L 10 24.517578 L 16.951172 32.462891 L 25 24.414062 z M 10 30 A 1 1 0 0 0 9 31 A 1 1 0 0 0 10 32 A 1 1 0 0 0 11 31 A 1 1 0 0 0 10 30 z M 25 30 A 1 1 0 0 0 24 31 A 1 1 0 0 0 25 32 A 1 1 0 0 0 26 31 A 1 1 0 0 0 25 30 z M 40 30 A 1 1 0 0 0 39 31 A 1 1 0 0 0 40 32 A 1 1 0 0 0 41 31 A 1 1 0 0 0 40 30 z M 12.037109 40 L 37.962891 40 C 34.846717 43.662883 30.202723 45.990234 25 45.990234 C 19.797277 45.990234 15.153283 43.662883 12.037109 40 z"/>
</svg>
